<svg width="595" height="512" viewBox="0 0 595 512" fill="none" xmlns="http://www.w3.org/2000/svg">
<path fill-rule="evenodd" clip-rule="evenodd" d="M594.71 179.003C592.348 239.605 542.506 285.904 505.785 334.172C479.705 368.451 446.903 394.674 411.723 419.525C381.471 440.895 348.598 454.83 314.501 469.295C275.169 485.98 238.395 511.781 195.674 511.175C148.271 510.504 89.537 505.331 63.4623 465.737C36.2026 424.344 80.8835 367.968 69.5835 319.71C58.843 273.842 3.94058 245.926 0.982354 198.91C-2.15641 149.025 12.3107 89.7024 53.3129 61.1153C95.273 31.8604 153.175 62.0475 204.105 57.2914C244.897 53.482 282.487 41.9227 323.016 35.929C389.095 26.1567 459.283 -20.3108 518.387 10.813C573.805 39.9963 597.149 116.417 594.71 179.003Z" fill="#DAB5FF" fill-opacity="0.14"/>
</svg>
