<svg width="613" height="553" viewBox="0 0 613 553" fill="none" xmlns="http://www.w3.org/2000/svg">
<path fill-rule="evenodd" clip-rule="evenodd" d="M469.874 0.863293C524.444 6.33764 604.481 24.0234 611.819 78.3746C620.683 144.027 509.176 174.182 502.169 240.059C496.341 294.857 578.261 327.937 579.413 383.033C580.676 443.368 564.29 523.097 508.575 546.287C450.105 570.625 389.489 512.187 331.774 486.11C293.713 468.914 262.923 442.68 228.13 419.576C195.7 398.042 164.109 378.631 133.567 354.493C86.9706 317.667 -4.58107 299.19 0.981708 240.059C6.83375 177.853 101.337 171.053 153.989 137.414C183.322 118.674 211.381 100.987 242.637 85.6687C271.841 71.3559 301.305 61.6526 331.774 50.2813C378.374 32.8901 420.383 -4.10147 469.874 0.863293Z" fill="#DAB5FF" fill-opacity="0.17"/>
</svg>
