<svg width="658" height="687" viewBox="0 0 658 687" fill="none" xmlns="http://www.w3.org/2000/svg">
<path fill-rule="evenodd" clip-rule="evenodd" d="M326.071 1.41251C386.587 -0.532581 454.447 -5.82039 502.046 31.5983C549.297 68.7427 544.656 140.903 571.756 194.549C596.984 244.488 648.427 280.964 656.022 336.395C663.914 393.999 647.214 454.914 613.966 502.612C581.664 548.955 523.145 564.873 475.553 595.306C425.496 627.315 385.43 684.085 326.071 686.709C266.61 689.337 217.204 643.446 168.76 608.866C123.903 576.847 83.7646 539.9 54.7544 493.04C25.1384 445.203 -1.61025 392.633 0.0756477 336.395C1.74472 280.719 37.8001 234.243 63.9864 185.081C91.0558 134.26 109.355 75.75 156.509 42.7047C204.974 8.74076 266.921 3.31374 326.071 1.41251Z" fill="#DAB5FF" fill-opacity="0.13"/>
</svg>
