<svg width="17" height="18" viewBox="0 0 17 18" fill="none" xmlns="http://www.w3.org/2000/svg">
<path fill-rule="evenodd" clip-rule="evenodd" d="M8.73581 10.4614L12.3879 14.1135C12.5817 14.3073 12.8445 14.4161 13.1186 14.4161C13.3926 14.4161 13.6555 14.3073 13.8493 14.1135C14.0431 13.9197 14.1519 13.6568 14.1519 13.3828C14.1519 13.1087 14.0431 12.8459 13.8493 12.6521L10.1958 9L13.8486 5.34791C13.9445 5.25196 14.0206 5.13805 14.0725 5.0127C14.1243 4.88734 14.151 4.75299 14.151 4.61732C14.151 4.48165 14.1242 4.34732 14.0723 4.22199C14.0203 4.09666 13.9442 3.98278 13.8482 3.88687C13.7523 3.79096 13.6384 3.71489 13.513 3.663C13.3877 3.61111 13.2533 3.58442 13.1177 3.58445C12.982 3.58449 12.8476 3.61124 12.7223 3.66319C12.597 3.71514 12.4831 3.79126 12.3872 3.88722L8.73581 7.5393L5.08373 3.88722C4.98848 3.78851 4.87453 3.70976 4.74852 3.65556C4.62251 3.60136 4.48697 3.5728 4.34981 3.57155C4.21265 3.57029 4.07661 3.59636 3.94963 3.64824C3.82265 3.70013 3.70728 3.77678 3.61024 3.87372C3.5132 3.97067 3.43644 4.08597 3.38444 4.2129C3.33244 4.33983 3.30624 4.47585 3.30736 4.61301C3.30849 4.75018 3.33692 4.88574 3.391 5.0118C3.44508 5.13786 3.52372 5.25189 3.62234 5.34723L7.2758 9L3.62303 12.6528C3.52441 12.7481 3.44577 12.8621 3.39169 12.9882C3.33761 13.1142 3.30918 13.2498 3.30805 13.387C3.30692 13.5241 3.33313 13.6602 3.38513 13.7871C3.43713 13.914 3.51389 14.0293 3.61093 14.1263C3.70796 14.2232 3.82334 14.2999 3.95032 14.3517C4.0773 14.4036 4.21334 14.4297 4.3505 14.4284C4.48766 14.4272 4.6232 14.3986 4.74921 14.3444C4.87522 14.2902 4.98917 14.2115 5.08441 14.1128L8.73581 10.4614Z" fill="black"/>
</svg>
