<svg width="21" height="28" viewBox="0 0 21 28" fill="none" xmlns="http://www.w3.org/2000/svg">
<path d="M10.5001 20.9582C9.81494 20.9582 9.15786 20.686 8.67339 20.2015C8.18892 19.7171 7.91675 19.06 7.91675 18.3748C7.91675 16.9411 9.06633 15.7915 10.5001 15.7915C11.1852 15.7915 11.8423 16.0637 12.3268 16.5481C12.8112 17.0326 13.0834 17.6897 13.0834 18.3748C13.0834 19.06 12.8112 19.7171 12.3268 20.2015C11.8423 20.686 11.1852 20.9582 10.5001 20.9582ZM18.2501 24.8332V11.9165H2.75008V24.8332H18.2501ZM18.2501 9.33317C18.9352 9.33317 19.5923 9.60534 20.0768 10.0898C20.5612 10.5743 20.8334 11.2314 20.8334 11.9165V24.8332C20.8334 25.5183 20.5612 26.1754 20.0768 26.6599C19.5923 27.1443 18.9352 27.4165 18.2501 27.4165H2.75008C2.06494 27.4165 1.40786 27.1443 0.923389 26.6599C0.43892 26.1754 0.166748 25.5183 0.166748 24.8332V11.9165C0.166748 10.4828 1.31633 9.33317 2.75008 9.33317H4.04175V6.74984C4.04175 5.03698 4.72218 3.39428 5.93335 2.18311C7.14452 0.971933 8.78722 0.291504 10.5001 0.291504C11.3482 0.291504 12.188 0.458554 12.9716 0.783115C13.7551 1.10768 14.4671 1.58339 15.0668 2.18311C15.6665 2.78282 16.1422 3.49478 16.4668 4.27834C16.7914 5.0619 16.9584 5.90172 16.9584 6.74984V9.33317H18.2501ZM10.5001 2.87484C9.47237 2.87484 8.48674 3.2831 7.76004 4.0098C7.03334 4.7365 6.62508 5.72212 6.62508 6.74984V9.33317H14.3751V6.74984C14.3751 5.72212 13.9668 4.7365 13.2401 4.0098C12.5134 3.2831 11.5278 2.87484 10.5001 2.87484Z" fill="#9B8FAA"/>
</svg>
