<svg width="18" height="18" viewBox="0 0 18 18" fill="none" xmlns="http://www.w3.org/2000/svg">
    <path d="M9 0C9.82617 0 10.623 0.105469 11.3906 0.316406C12.1582 0.527344 12.873 0.832031 13.5352 1.23047C14.1973 1.62891 14.8037 2.09766 15.3545 2.63672C15.9053 3.17578 16.377 3.78223 16.7695 4.45605C17.1621 5.12988 17.4639 5.84766 17.6748 6.60938C17.8857 7.37109 17.9941 8.16797 18 9C18 9.82617 17.8945 10.623 17.6836 11.3906C17.4727 12.1582 17.168 12.873 16.7695 13.5352C16.3711 14.1973 15.9023 14.8037 15.3633 15.3545C14.8242 15.9053 14.2178 16.377 13.5439 16.7695C12.8701 17.1621 12.1523 17.4639 11.3906 17.6748C10.6289 17.8857 9.83203 17.9941 9 18C8.68945 18 8.39941 17.9414 8.12988 17.8242C7.86035 17.707 7.62012 17.5459 7.40918 17.3408C7.19824 17.1357 7.03711 16.8984 6.92578 16.6289C6.81445 16.3594 6.75586 16.0664 6.75 15.75C6.75 15.4395 6.78809 15.1377 6.86426 14.8447C6.94043 14.5518 7.06348 14.2705 7.2334 14.001C7.26855 13.9365 7.30078 13.8867 7.33008 13.8516C7.35938 13.8164 7.39453 13.7695 7.43555 13.7109C7.58203 13.4824 7.69043 13.2744 7.76074 13.0869C7.83105 12.8994 7.86914 12.6621 7.875 12.375C7.875 12.0645 7.81641 11.7744 7.69922 11.5049C7.58203 11.2354 7.4209 10.9951 7.21582 10.7842C7.01074 10.5732 6.77344 10.4121 6.50391 10.3008C6.23438 10.1895 5.94141 10.1309 5.625 10.125C5.34375 10.125 5.10938 10.1602 4.92188 10.2305C4.73438 10.3008 4.52344 10.4121 4.28906 10.5645C4.23047 10.6055 4.18359 10.6406 4.14844 10.6699C4.11328 10.6992 4.06348 10.7314 3.99902 10.7666C3.73535 10.9307 3.45703 11.0508 3.16406 11.127C2.87109 11.2031 2.56641 11.2441 2.25 11.25C1.93945 11.25 1.64941 11.1914 1.37988 11.0742C1.11035 10.957 0.870117 10.7959 0.65918 10.5908C0.448242 10.3857 0.287109 10.1484 0.175781 9.87891C0.0644531 9.60938 0.00585938 9.31641 0 9C0 8.17383 0.105469 7.37695 0.316406 6.60938C0.527344 5.8418 0.832031 5.12695 1.23047 4.46484C1.62891 3.80273 2.09766 3.19629 2.63672 2.64551C3.17578 2.09473 3.78223 1.62305 4.45605 1.23047C5.12988 0.837891 5.84766 0.536133 6.60938 0.325195C7.37109 0.114258 8.16797 0.00585938 9 0ZM12.375 4.21875C12.1816 4.21875 12 4.25391 11.8301 4.32422C11.6602 4.39453 11.5107 4.49707 11.3818 4.63184C11.2529 4.7666 11.1533 4.91602 11.083 5.08008C11.0127 5.24414 10.9746 5.42578 10.9688 5.625C10.9688 5.81836 11.0039 6 11.0742 6.16992C11.1445 6.33984 11.2471 6.48926 11.3818 6.61816C11.5166 6.74707 11.666 6.84668 11.8301 6.91699C11.9941 6.9873 12.1758 7.02539 12.375 7.03125C12.5684 7.03125 12.75 6.99609 12.9199 6.92578C13.0898 6.85547 13.2393 6.75293 13.3682 6.61816C13.4971 6.4834 13.5967 6.33398 13.667 6.16992C13.7373 6.00586 13.7754 5.82422 13.7812 5.625C13.7812 5.43164 13.7461 5.25 13.6758 5.08008C13.6055 4.91016 13.5029 4.76074 13.3682 4.63184C13.2334 4.50293 13.084 4.40332 12.9199 4.33301C12.7559 4.2627 12.5742 4.22461 12.375 4.21875ZM4.5 8.15625C4.69336 8.15625 4.875 8.12109 5.04492 8.05078C5.21484 7.98047 5.36426 7.87793 5.49316 7.74316C5.62207 7.6084 5.72168 7.45898 5.79199 7.29492C5.8623 7.13086 5.90039 6.94922 5.90625 6.75C5.90625 6.55664 5.87109 6.375 5.80078 6.20508C5.73047 6.03516 5.62793 5.88574 5.49316 5.75684C5.3584 5.62793 5.20898 5.52832 5.04492 5.45801C4.88086 5.3877 4.69922 5.34961 4.5 5.34375C4.30664 5.34375 4.125 5.37891 3.95508 5.44922C3.78516 5.51953 3.63574 5.62207 3.50684 5.75684C3.37793 5.8916 3.27832 6.04102 3.20801 6.20508C3.1377 6.36914 3.09961 6.55078 3.09375 6.75C3.09375 6.94336 3.12891 7.125 3.19922 7.29492C3.26953 7.46484 3.37207 7.61426 3.50684 7.74316C3.6416 7.87207 3.79102 7.97168 3.95508 8.04199C4.11914 8.1123 4.30078 8.15039 4.5 8.15625ZM7.875 5.90625C8.06836 5.90625 8.25 5.87109 8.41992 5.80078C8.58984 5.73047 8.73926 5.62793 8.86816 5.49316C8.99707 5.3584 9.09668 5.20898 9.16699 5.04492C9.2373 4.88086 9.27539 4.69922 9.28125 4.5C9.28125 4.30664 9.24609 4.125 9.17578 3.95508C9.10547 3.78516 9.00293 3.63574 8.86816 3.50684C8.7334 3.37793 8.58398 3.27832 8.41992 3.20801C8.25586 3.1377 8.07422 3.09961 7.875 3.09375C7.68164 3.09375 7.5 3.12891 7.33008 3.19922C7.16016 3.26953 7.01074 3.37207 6.88184 3.50684C6.75293 3.6416 6.65332 3.79102 6.58301 3.95508C6.5127 4.11914 6.47461 4.30078 6.46875 4.5C6.46875 4.69336 6.50391 4.875 6.57422 5.04492C6.64453 5.21484 6.74707 5.36426 6.88184 5.49316C7.0166 5.62207 7.16602 5.72168 7.33008 5.79199C7.49414 5.8623 7.67578 5.90039 7.875 5.90625ZM11.25 14.9062C11.4434 14.9062 11.625 14.8711 11.7949 14.8008C11.9648 14.7305 12.1143 14.6279 12.2432 14.4932C12.3721 14.3584 12.4717 14.209 12.542 14.0449C12.6123 13.8809 12.6504 13.6992 12.6562 13.5C12.6562 13.3066 12.6211 13.125 12.5508 12.9551C12.4805 12.7852 12.3779 12.6357 12.2432 12.5068C12.1084 12.3779 11.959 12.2783 11.7949 12.208C11.6309 12.1377 11.4492 12.0996 11.25 12.0938C11.0566 12.0938 10.875 12.1289 10.7051 12.1992C10.5352 12.2695 10.3857 12.3721 10.2568 12.5068C10.1279 12.6416 10.0283 12.791 9.95801 12.9551C9.8877 13.1191 9.84961 13.3008 9.84375 13.5C9.84375 13.6934 9.87891 13.875 9.94922 14.0449C10.0195 14.2148 10.1221 14.3643 10.2568 14.4932C10.3916 14.6221 10.541 14.7217 10.7051 14.792C10.8691 14.8623 11.0508 14.9004 11.25 14.9062ZM13.5 11.5312C13.6934 11.5312 13.875 11.4961 14.0449 11.4258C14.2148 11.3555 14.3643 11.2529 14.4932 11.1182C14.6221 10.9834 14.7217 10.834 14.792 10.6699C14.8623 10.5059 14.9004 10.3242 14.9062 10.125C14.9062 9.93164 14.8711 9.75 14.8008 9.58008C14.7305 9.41016 14.6279 9.26074 14.4932 9.13184C14.3584 9.00293 14.209 8.90332 14.0449 8.83301C13.8809 8.7627 13.6992 8.72461 13.5 8.71875C13.3066 8.71875 13.125 8.75391 12.9551 8.82422C12.7852 8.89453 12.6357 8.99707 12.5068 9.13184C12.3779 9.2666 12.2783 9.41602 12.208 9.58008C12.1377 9.74414 12.0996 9.92578 12.0938 10.125C12.0938 10.3184 12.1289 10.5 12.1992 10.6699C12.2695 10.8398 12.3721 10.9893 12.5068 11.1182C12.6416 11.2471 12.791 11.3467 12.9551 11.417C13.1191 11.4873 13.3008 11.5254 13.5 11.5312Z"
          fill="#FFF"/>
</svg>
