<svg width="64" height="64" viewBox="0 0 64 64" fill="none" xmlns="http://www.w3.org/2000/svg">
<path d="M27.3641 4.39021L9.79583 14.814C8.49836 15.5398 7.41745 16.6014 6.66514 17.8889C5.91283 19.1764 5.51649 20.6428 5.51721 22.1362V41.1396C5.52032 42.6476 5.92572 44.1272 6.69108 45.4238C7.45645 46.7205 8.55374 47.7868 9.86844 48.5114L27.2293 59.5638C29.9105 61.0507 32.986 61.0507 35.5272 59.6473L53.1707 48.4253C55.7119 47.0245 57.3793 44.2046 57.3793 41.1396V22.1388L57.3663 21.6067C57.2957 20.3864 56.9612 19.1963 56.3861 18.1195C55.8111 17.0427 55.0093 16.1051 54.0368 15.3722L53.7593 15.1766L53.7412 15.1583C53.5982 15.0253 53.4407 14.909 53.2718 14.8114L35.7009 4.39021C34.424 3.68185 32.9895 3.31035 31.5312 3.31035C30.073 3.31035 28.6385 3.68185 27.3615 4.39021H27.3641Z" fill="white"/>
<path d="M28.2672 8.89413L13.7927 17.4314C12.7237 18.0259 11.8331 18.8954 11.2133 19.9498C10.5935 21.0043 10.2669 22.2054 10.2675 23.4285V38.9926C10.2701 40.2277 10.6041 41.4395 11.2347 42.5015C11.8653 43.5635 12.7693 44.4368 13.8525 45.0303L28.1561 54.0825C30.3652 55.3003 32.8991 55.3003 34.9928 54.1508L49.5293 44.9598C51.623 43.8125 52.9968 41.503 52.9968 38.9926V23.4306L52.9861 22.9948C52.9279 21.9953 52.6523 21.0206 52.1785 20.1387C51.7047 19.2568 51.0441 18.4889 50.2429 17.8886L50.0143 17.7284L49.9993 17.7135C49.8815 17.6045 49.7518 17.5092 49.6126 17.4293L35.136 8.89413C34.0839 8.31397 32.902 8.0097 31.7005 8.0097C30.4991 8.0097 29.3172 8.31397 28.2651 8.89413H28.2672Z" fill="#B999FF"/>
</svg>
