<svg width="81" height="81" viewBox="0 0 81 81" fill="none" xmlns="http://www.w3.org/2000/svg">
<path d="M34.7925 5.64534L12.0249 19.154C10.3434 20.0946 8.94262 21.4704 7.96766 23.1389C6.99271 24.8074 6.47908 26.7079 6.48001 28.6433V53.2706C6.48405 55.225 7.00941 57.1424 8.00129 58.8228C8.99316 60.5032 10.4152 61.885 12.119 62.8241L34.6177 77.1475C38.0925 79.0744 42.0781 79.0744 45.3714 77.2557L68.2364 62.7125C71.5297 60.8972 73.6906 57.2428 73.6906 53.2706V28.6467L73.6738 27.957C73.5823 26.3756 73.1488 24.8333 72.4035 23.4378C71.6582 22.0423 70.6192 20.8273 69.3588 19.8775L68.9993 19.6239L68.9757 19.6003C68.7904 19.4279 68.5864 19.2771 68.3675 19.1507L45.5966 5.64534C43.9417 4.72734 42.0826 4.2459 40.1928 4.2459C38.303 4.2459 36.444 4.72734 34.7891 5.64534H34.7925Z" fill="#FFC375"/>
<path d="M35.4747 11.9663L16.5009 23.224C15.0996 24.0078 13.9323 25.1544 13.1198 26.5448C12.3073 27.9353 11.8792 29.5191 11.88 31.132V51.6556C11.8834 53.2843 12.3212 54.8822 13.1478 56.2826C13.9744 57.683 15.1595 58.8345 16.5793 59.6171L35.329 71.5538C38.2248 73.1596 41.5462 73.1596 44.2908 71.6439L63.3457 59.5241C66.0903 58.0113 67.891 54.9658 67.891 51.6556V31.1348L67.877 30.5601C67.8008 29.2421 67.4395 27.9568 66.8184 26.7939C66.1974 25.6309 65.3314 24.6184 64.2811 23.8268L63.9815 23.6156L63.9619 23.5958C63.8074 23.4522 63.6374 23.3265 63.455 23.2211L44.4784 11.9663C43.0993 11.2012 41.55 10.8 39.9751 10.8C38.4002 10.8 36.851 11.2012 35.4719 11.9663H35.4747Z" fill="white"/>
<path d="M36.7196 17.1555L21.0871 26.3757C19.9326 27.0177 18.9708 27.9568 18.3013 29.0956C17.6319 30.2344 17.2793 31.5316 17.2799 32.8526V49.6618C17.2827 50.9957 17.6434 52.3045 18.3244 53.4514C19.0055 54.5984 19.9819 55.5416 21.1517 56.1825L36.5996 65.9589C38.9854 67.2741 41.722 67.2741 43.9832 66.0327L59.6826 56.1063C61.9439 54.8673 63.4275 52.373 63.4275 49.6618V32.8549L63.416 32.3842C63.3532 31.3048 63.0555 30.2521 62.5438 29.2996C62.0321 28.3471 61.3187 27.5178 60.4533 26.8695L60.2064 26.6965L60.1903 26.6803C60.063 26.5627 59.9229 26.4597 59.7726 26.3734L44.1378 17.1555C43.0016 16.5289 41.7251 16.2003 40.4276 16.2003C39.13 16.2003 37.8535 16.5289 36.7173 17.1555H36.7196Z" fill="#B999FF"/>
</svg>
