<svg width="25" height="25" viewBox="0 0 25 25" fill="none" xmlns="http://www.w3.org/2000/svg">
<path d="M20.7292 13.1872C20.5622 12.9971 20.4701 12.7527 20.4701 12.4997C20.4701 12.2466 20.5622 12.0022 20.7292 11.8122L22.0625 10.3122C22.2094 10.1483 22.3007 9.94206 22.3231 9.7231C22.3456 9.50415 22.2981 9.28371 22.1875 9.09341L20.1042 5.48924C19.9947 5.29916 19.828 5.14849 19.6279 5.0587C19.4277 4.96892 19.2043 4.94461 18.9896 4.98924L17.0312 5.38507C16.7821 5.43656 16.5226 5.39506 16.302 5.26841C16.0813 5.14175 15.9146 4.9387 15.8333 4.69757L15.1979 2.79132C15.128 2.58443 14.9949 2.40472 14.8173 2.27762C14.6397 2.15051 14.4267 2.08243 14.2083 2.08299H10.0417C9.81451 2.07113 9.58972 2.13396 9.40162 2.26186C9.21353 2.38976 9.07247 2.57572 8.99999 2.79132L8.41666 4.69757C8.33541 4.9387 8.16871 5.14175 7.94803 5.26841C7.72734 5.39506 7.46793 5.43656 7.21874 5.38507L5.20833 4.98924C5.00473 4.96047 4.79718 4.9926 4.61181 5.08157C4.42645 5.17055 4.27156 5.31239 4.16666 5.48924L2.08333 9.09341C1.96995 9.28158 1.91898 9.50079 1.93768 9.71968C1.95639 9.93857 2.04383 10.1459 2.18749 10.3122L3.51041 11.8122C3.67741 12.0022 3.76951 12.2466 3.76951 12.4997C3.76951 12.7527 3.67741 12.9971 3.51041 13.1872L2.18749 14.6872C2.04383 14.8534 1.95639 15.0607 1.93768 15.2796C1.91898 15.4985 1.96995 15.7177 2.08333 15.9059L4.16666 19.5101C4.27614 19.7002 4.44283 19.8508 4.64296 19.9406C4.8431 20.0304 5.06648 20.0547 5.28124 20.0101L7.23958 19.6142C7.48876 19.5628 7.74817 19.6042 7.96886 19.7309C8.18955 19.8576 8.35625 20.0606 8.43749 20.3017L9.07291 22.208C9.14539 22.4236 9.28645 22.6095 9.47454 22.7375C9.66263 22.8654 9.88742 22.9282 10.1146 22.9163H14.2812C14.4996 22.9169 14.7127 22.8488 14.8902 22.7217C15.0678 22.5946 15.2009 22.4149 15.2708 22.208L15.9062 20.3017C15.9875 20.0606 16.1542 19.8576 16.3749 19.7309C16.5956 19.6042 16.855 19.5628 17.1042 19.6142L19.0625 20.0101C19.2773 20.0547 19.5006 20.0304 19.7008 19.9406C19.9009 19.8508 20.0676 19.7002 20.1771 19.5101L22.2604 15.9059C22.371 15.7156 22.4185 15.4952 22.396 15.2762C22.3736 15.0573 22.2823 14.851 22.1354 14.6872L20.7292 13.1872ZM19.1771 14.583L20.0104 15.5205L18.6771 17.833L17.4479 17.583C16.6977 17.4296 15.9173 17.5571 15.2548 17.9411C14.5923 18.3252 14.0939 18.9391 13.8542 19.6663L13.4583 20.833H10.7917L10.4167 19.6455C10.1769 18.9182 9.67852 18.3043 9.01604 17.9203C8.35356 17.5362 7.57314 17.4088 6.82291 17.5622L5.59374 17.8122L4.23958 15.5101L5.07291 14.5726C5.58536 13.9996 5.86867 13.2579 5.86867 12.4892C5.86867 11.7206 5.58536 10.9788 5.07291 10.4059L4.23958 9.46841L5.57291 7.17674L6.80208 7.42674C7.55231 7.5801 8.33273 7.45266 8.99521 7.06861C9.65768 6.68457 10.1561 6.07066 10.3958 5.34341L10.7917 4.16632H13.4583L13.8542 5.35382C14.0939 6.08107 14.5923 6.69499 15.2548 7.07903C15.9173 7.46307 16.6977 7.59051 17.4479 7.43716L18.6771 7.18716L20.0104 9.49966L19.1771 10.4372C18.6704 11.0088 18.3906 11.7462 18.3906 12.5101C18.3906 13.2739 18.6704 14.0114 19.1771 14.583ZM12.125 8.33299C11.3009 8.33299 10.4953 8.57736 9.81012 9.0352C9.12491 9.49304 8.59086 10.1438 8.2755 10.9051C7.96013 11.6665 7.87762 12.5043 8.03839 13.3125C8.19916 14.1208 8.596 14.8632 9.17872 15.4459C9.76143 16.0287 10.5039 16.4255 11.3121 16.5863C12.1204 16.747 12.9581 16.6645 13.7195 16.3492C14.4809 16.0338 15.1316 15.4997 15.5894 14.8145C16.0473 14.1293 16.2917 13.3237 16.2917 12.4997C16.2917 11.3946 15.8527 10.3348 15.0713 9.55338C14.2899 8.77198 13.2301 8.33299 12.125 8.33299ZM12.125 14.583C11.7129 14.583 11.3102 14.4608 10.9676 14.2319C10.625 14.003 10.3579 13.6776 10.2002 13.2969C10.0426 12.9162 10.0013 12.4973 10.0817 12.0932C10.1621 11.6891 10.3605 11.3179 10.6519 11.0265C10.9432 10.7352 11.3144 10.5367 11.7186 10.4564C12.1227 10.376 12.5416 10.4172 12.9222 10.5749C13.3029 10.7326 13.6283 10.9996 13.8572 11.3422C14.0861 11.6848 14.2083 12.0876 14.2083 12.4997C14.2083 13.0522 13.9888 13.5821 13.5981 13.9728C13.2074 14.3635 12.6775 14.583 12.125 14.583Z" fill="white"/>
</svg>
