<svg width="22" height="22" viewBox="0 0 22 22" fill="none" xmlns="http://www.w3.org/2000/svg">
<path d="M20.1667 4.583H1.83335C1.59024 4.583 1.35708 4.67958 1.18517 4.85149C1.01326 5.0234 0.916687 5.25655 0.916687 5.49967V9.16634C0.918282 9.7337 1.09533 10.2867 1.42355 10.7495C1.75177 11.2123 2.2151 11.5622 2.75002 11.7513V20.1663C2.75002 20.4095 2.8466 20.6426 3.01851 20.8145C3.19041 20.9864 3.42357 21.083 3.66669 21.083H18.3334C18.5765 21.083 18.8096 20.9864 18.9815 20.8145C19.1534 20.6426 19.25 20.4095 19.25 20.1663V11.7513C19.7849 11.5622 20.2483 11.2123 20.5765 10.7495C20.9047 10.2867 21.0818 9.7337 21.0834 9.16634V5.49967C21.0834 5.25655 20.9868 5.0234 20.8149 4.85149C20.643 4.67958 20.4098 4.583 20.1667 4.583ZM13.75 6.41634H15.5834V9.16634C15.5834 9.40945 15.4868 9.64261 15.3149 9.81452C15.143 9.98643 14.9098 10.083 14.6667 10.083C14.4236 10.083 14.1904 9.98643 14.0185 9.81452C13.8466 9.64261 13.75 9.40945 13.75 9.16634V6.41634ZM10.0834 6.41634H11.9167V9.16634C11.9167 9.40945 11.8201 9.64261 11.6482 9.81452C11.4763 9.98643 11.2431 10.083 11 10.083C10.7569 10.083 10.5237 9.98643 10.3518 9.81452C10.1799 9.64261 10.0834 9.40945 10.0834 9.16634V6.41634ZM6.41669 6.41634H8.25002V9.16634C8.25002 9.40945 8.15344 9.64261 7.98153 9.81452C7.80963 9.98643 7.57647 10.083 7.33335 10.083C7.09024 10.083 6.85708 9.98643 6.68517 9.81452C6.51326 9.64261 6.41669 9.40945 6.41669 9.16634V6.41634ZM3.66669 10.083C3.42357 10.083 3.19041 9.98643 3.01851 9.81452C2.8466 9.64261 2.75002 9.40945 2.75002 9.16634V6.41634H4.58335V9.16634C4.58335 9.40945 4.48678 9.64261 4.31487 9.81452C4.14296 9.98643 3.9098 10.083 3.66669 10.083ZM12.8334 19.2497H9.16669V17.4163C9.16669 16.9301 9.35984 16.4638 9.70366 16.12C10.0475 15.7762 10.5138 15.583 11 15.583C11.4863 15.583 11.9526 15.7762 12.2964 16.12C12.6402 16.4638 12.8334 16.9301 12.8334 17.4163V19.2497ZM17.4167 19.2497H14.6667V17.4163C14.6667 16.4439 14.2804 15.5112 13.5927 14.8236C12.9051 14.136 11.9725 13.7497 11 13.7497C10.0276 13.7497 9.09493 14.136 8.40729 14.8236C7.71966 15.5112 7.33335 16.4439 7.33335 17.4163V19.2497H4.58335V11.7513C4.92002 11.6257 5.23073 11.4393 5.50002 11.2013C6.00421 11.6523 6.65692 11.9016 7.33335 11.9016C8.00979 11.9016 8.6625 11.6523 9.16669 11.2013C9.67087 11.6523 10.3236 11.9016 11 11.9016C11.6765 11.9016 12.3292 11.6523 12.8334 11.2013C13.3375 11.6523 13.9902 11.9016 14.6667 11.9016C15.3431 11.9016 15.9958 11.6523 16.5 11.2013C16.7693 11.4393 17.08 11.6257 17.4167 11.7513V19.2497ZM19.25 9.16634C19.25 9.40945 19.1534 9.64261 18.9815 9.81452C18.8096 9.98643 18.5765 10.083 18.3334 10.083C18.0902 10.083 17.8571 9.98643 17.6852 9.81452C17.5133 9.64261 17.4167 9.40945 17.4167 9.16634V6.41634H19.25V9.16634ZM3.94169 2.74967H18.3334C18.5765 2.74967 18.8096 2.65309 18.9815 2.48118C19.1534 2.30928 19.25 2.07612 19.25 1.833C19.25 1.58989 19.1534 1.35673 18.9815 1.18482C18.8096 1.01291 18.5765 0.916336 18.3334 0.916336H3.94169C3.69857 0.916336 3.46541 1.01291 3.29351 1.18482C3.1216 1.35673 3.02502 1.58989 3.02502 1.833C3.02502 2.07612 3.1216 2.30928 3.29351 2.48118C3.46541 2.65309 3.69857 2.74967 3.94169 2.74967Z" fill="white"/>
</svg>
